<?xml version="1.0" standalone="no"?>
<!DOCTYPE svg PUBLIC "-//W3C//DTD SVG 20010904//EN"
 "http://www.w3.org/TR/2001/REC-SVG-20010904/DTD/svg10.dtd">
<svg version="1.0" xmlns="http://www.w3.org/2000/svg"
 width="962.000000pt" height="588.000000pt" viewBox="0 0 962.000000 588.000000"
 preserveAspectRatio="xMidYMid meet">

<g transform="translate(0.000000,588.000000) scale(0.100000,-0.100000)"
fill="#4D43E3" stroke="none">
<path d="M4048 4928 c-20 -35 -67 -117 -105 -183 -315 -544 -373 -645 -373
-654 0 -8 392 -11 1300 -11 954 0 1300 3 1300 11 0 9 -444 786 -503 880 -12
19 -31 19 -797 19 l-786 0 -36 -62z"/>
<path d="M3421 3534 c-86 -23 -171 -74 -236 -140 -61 -63 -76 -88 -738 -1239
-83 -143 -161 -277 -173 -297 -13 -21 -24 -42 -24 -48 0 -13 1009 -13 1101 0
212 31 430 142 588 301 90 89 131 148 261 374 367 637 585 1017 599 1043 l12
22 -668 -1 c-550 0 -677 -3 -722 -15z"/>
<path d="M4946 3518 c9 -18 56 -100 104 -183 48 -82 149 -258 225 -390 76
-132 188 -325 248 -430 60 -104 128 -217 150 -250 144 -214 338 -353 607 -433
l85 -26 563 -4 c309 -2 562 0 562 5 0 9 -29 62 -132 238 -41 72 -160 276 -263
455 -191 332 -375 651 -447 774 -51 87 -136 172 -214 213 -120 64 -111 63
-841 63 l-664 0 17 -32z"/>
<path d="M3566 1150 c-117 -35 -183 -167 -142 -283 27 -73 74 -107 218 -157
54 -18 105 -41 114 -51 26 -28 10 -67 -33 -86 -56 -23 -116 -10 -167 37 l-41
38 -63 -35 c-39 -22 -62 -41 -62 -52 0 -37 58 -99 122 -130 198 -98 429 2 428
185 -1 117 -70 187 -242 243 -112 37 -147 81 -93 117 38 25 99 13 139 -25 l32
-31 67 37 c37 20 67 41 67 46 0 5 -9 25 -21 43 -25 42 -91 88 -144 103 -46 13
-137 13 -179 1z"/>
<path d="M8835 1136 c-99 -46 -148 -141 -125 -243 21 -90 71 -131 225 -183 49
-16 97 -38 107 -47 29 -26 19 -65 -22 -87 -55 -29 -123 -16 -173 35 l-39 39
-64 -38 c-40 -23 -64 -44 -64 -55 0 -29 86 -113 139 -136 100 -43 217 -37 308
15 62 36 93 82 100 147 8 78 -2 118 -43 166 -41 47 -78 68 -199 112 -95 35
-125 62 -106 98 13 23 67 37 107 27 14 -4 39 -21 54 -38 l28 -30 66 37 c46 26
66 43 66 56 0 35 -91 116 -151 133 -77 23 -154 20 -214 -8z"/>
<path d="M755 1138 c-3 -7 -57 -157 -120 -333 -64 -176 -122 -337 -130 -357
l-14 -37 85 -3 c90 -3 104 -2 104 12 0 5 9 34 21 65 l20 55 134 0 133 0 25
-62 25 -63 92 -3 c85 -3 92 -1 85 15 -4 10 -50 135 -102 278 -52 143 -109 301
-128 350 l-33 90 -96 3 c-72 2 -98 -1 -101 -10z m139 -330 c27 -76 31 -97 19
-99 -39 -7 -101 -6 -112 0 -21 13 33 171 59 171 4 0 19 -33 34 -72z"/>
<path d="M1220 1070 l0 -80 89 0 c85 0 89 -1 95 -24 3 -13 6 -122 5 -242 0
-121 0 -241 0 -267 l1 -48 82 3 83 3 1 270 c1 149 2 278 3 287 1 15 15 18 94
20 l92 3 0 75 0 75 -272 3 -273 2 0 -80z"/>
<path d="M1940 780 l0 -370 230 0 231 0 -3 78 -3 77 -140 5 -140 5 -3 288 -2
287 -85 0 -85 0 0 -370z"/>
<path d="M2725 873 c-55 -152 -112 -310 -127 -352 -16 -42 -31 -84 -34 -94 -5
-16 2 -18 86 -15 l93 3 21 60 21 60 136 3 135 3 23 -66 23 -65 89 0 c49 0 89
3 89 8 0 4 -59 170 -131 370 l-132 362 -96 0 -96 0 -100 -277z m238 -77 c16
-43 26 -80 23 -83 -8 -8 -111 -7 -124 1 -7 4 -3 28 14 74 14 37 27 73 29 80
10 28 31 2 58 -72z"/>
<path d="M4502 783 l3 -368 83 -3 82 -3 2 33 c1 18 0 103 -1 188 -1 135 6 197
22 180 3 -3 41 -67 86 -142 59 -100 87 -138 101 -138 13 0 39 34 91 123 85
144 99 163 111 145 4 -7 8 -74 8 -148 -1 -74 -1 -159 0 -187 l0 -53 80 0 80 0
0 370 0 370 -87 0 -88 0 -90 -155 c-53 -91 -96 -155 -105 -155 -9 0 -52 62
-105 153 l-90 152 -93 3 -93 3 3 -368z"/>
<path d="M5693 1132 c-100 -36 -180 -109 -225 -208 -19 -41 -23 -66 -23 -149
0 -92 3 -105 33 -167 52 -108 151 -183 274 -209 160 -35 343 59 414 213 26 57
29 73 29 168 0 98 -2 109 -32 165 -38 74 -105 138 -181 173 -76 35 -210 42
-289 14z m228 -175 c66 -35 102 -93 107 -170 4 -77 -24 -138 -86 -182 -52 -36
-145 -46 -203 -21 -119 50 -166 198 -96 301 61 90 184 121 278 72z"/>
<path d="M6312 1073 l3 -78 92 -3 93 -3 2 -287 3 -287 83 -3 82 -3 0 275 c0
151 3 281 6 290 5 13 23 16 95 16 l89 0 0 80 0 80 -275 0 -276 0 3 -77z"/>
<path d="M7209 1127 c-102 -43 -163 -101 -208 -197 -23 -48 -26 -68 -26 -155
0 -93 2 -105 33 -167 55 -112 150 -183 280 -209 157 -32 329 57 404 209 31 62
33 74 33 167 0 89 -3 107 -29 162 -35 76 -104 144 -184 181 -47 22 -74 27
-152 30 -81 2 -103 -1 -151 -21z m255 -177 c59 -40 88 -90 93 -162 4 -53 1
-70 -19 -108 -37 -69 -94 -104 -176 -108 -56 -3 -74 0 -112 20 -98 53 -138
174 -90 272 37 78 106 117 201 113 51 -2 74 -8 103 -27z"/>
<path d="M7920 780 l0 -370 85 0 85 0 0 115 0 115 49 0 50 0 63 -112 64 -113
97 -3 c53 -1 97 0 97 3 0 3 -31 60 -70 128 -38 67 -70 128 -70 135 0 6 9 16
20 22 31 17 78 108 86 166 13 106 -47 218 -139 263 -39 19 -61 21 -230 21
l-187 0 0 -370z m365 188 c15 -14 28 -38 31 -59 5 -31 1 -42 -24 -70 -28 -31
-33 -33 -103 -35 -40 -1 -78 0 -86 3 -9 4 -13 29 -13 94 l0 89 84 0 c74 0 88
-3 111 -22z"/>
</g>
</svg>
